<svg width="20" height="20" viewBox="0 0 20 20" fill="none" xmlns="http://www.w3.org/2000/svg">
<path d="M5.32365 6.97546V18.0357H1.64061V6.97546H5.32365ZM5.55802 3.56028C5.56546 4.10343 5.37759 4.5573 4.99441 4.92188C4.61122 5.28647 4.10713 5.46876 3.48213 5.46876H3.45981C2.84969 5.46876 2.35862 5.28647 1.98659 4.92188C1.61457 4.5573 1.42856 4.10343 1.42856 3.56028C1.42856 3.00968 1.62015 2.55395 2.00334 2.19309C2.38652 1.83223 2.88689 1.65179 3.50445 1.65179C4.12201 1.65179 4.6168 1.83223 4.98883 2.19309C5.36085 2.55395 5.55058 3.00968 5.55802 3.56028ZM18.5714 11.6964V18.0357H14.8995V12.1205C14.8995 11.3393 14.7489 10.7273 14.4475 10.2846C14.1462 9.8419 13.6756 9.62054 13.0357 9.62054C12.567 9.62054 12.1745 9.74889 11.8582 10.0056C11.542 10.2623 11.3058 10.5804 11.1495 10.9598C11.0677 11.183 11.0268 11.4844 11.0268 11.8638V18.0357H7.3549C7.36978 15.067 7.37722 12.66 7.37722 10.8147C7.37722 8.9695 7.3735 7.86831 7.36606 7.51117L7.3549 6.97546H11.0268V8.5826H11.0045C11.1533 8.3445 11.3058 8.13617 11.462 7.9576C11.6183 7.77903 11.8285 7.58557 12.0926 7.37724C12.3568 7.16891 12.6804 7.00708 13.0636 6.89175C13.4468 6.77642 13.8728 6.71876 14.3415 6.71876C15.6138 6.71876 16.6369 7.14101 17.4107 7.9855C18.1845 8.82999 18.5714 10.067 18.5714 11.6964Z" fill="white"/>
</svg>
